<?xml version="1.0" encoding="UTF-8" standalone="no"?>
<!-- Created with Inkscape (http://www.inkscape.org/) -->

<svg
   xmlns:dc="http://purl.org/dc/elements/1.1/"
   xmlns:cc="http://creativecommons.org/ns#"
   xmlns:rdf="http://www.w3.org/1999/02/22-rdf-syntax-ns#"
   xmlns:svg="http://www.w3.org/2000/svg"
   xmlns="http://www.w3.org/2000/svg"
   xmlns:sodipodi="http://sodipodi.sourceforge.net/DTD/sodipodi-0.dtd"
   xmlns:inkscape="http://www.inkscape.org/namespaces/inkscape"
   id="svg7698"
   version="1.1"
   inkscape:version="0.91 r13725"
   width="96"
   height="96"
   viewBox="0 0 96 96"
   sodipodi:docname="mail.svg">
  <metadata
     id="metadata7704">
    <rdf:RDF>
      <cc:Work
         rdf:about="">
        <dc:format>image/svg+xml</dc:format>
        <dc:type
           rdf:resource="http://purl.org/dc/dcmitype/StillImage" />
        <dc:title></dc:title>
      </cc:Work>
    </rdf:RDF>
  </metadata>
  <defs
     id="defs7702" />
  <sodipodi:namedview
     pagecolor="#ffffff"
     bordercolor="#666666"
     borderopacity="1"
     objecttolerance="10"
     gridtolerance="10"
     guidetolerance="10"
     inkscape:pageopacity="0"
     inkscape:pageshadow="2"
     inkscape:window-width="1268"
     inkscape:window-height="593"
     id="namedview7700"
     showgrid="false"
     inkscape:zoom="2.4583333"
     inkscape:cx="48"
     inkscape:cy="48"
     inkscape:window-x="60"
     inkscape:window-y="127"
     inkscape:window-maximized="0"
     inkscape:current-layer="svg7698" />
  <path
     style="fill:#659b40"
     d="M 35.298767,94.012672 C 11.426448,87.592601 -4.1713622,63.590024 0.0777978,39.813149 1.9228478,29.488907 6.1187278,21.475753 13.593848,14.000628 32.261358,-4.6668807 61.139552,-4.9930245 80.263027,13.247682 95.511938,27.792679 99.274391,49.890501 89.774663,69.111893 79.927443,89.036388 56.542159,99.725731 35.298767,94.012672 Z M 57.506842,90.097985 C 65.782947,87.942334 70.81876,85.08555 77.388057,78.819502 87.817594,68.871409 92.7697,54.309673 90.293503,40.870865 86.255832,18.957638 69.004361,4.3366059 47.186441,4.3366059 c -22.980103,0 -40.5733132,15.9859371 -43.5162932,39.5407371 -1.46602,11.733588 3.4686,24.800214 12.9639502,34.327953 11.59783,11.637379 25.888632,15.795554 40.872744,11.892689 z M 19.186438,58.748209 c 0,-15.575021 0.15079,-16.981472 2,-18.654988 1.65419,-1.497021 2,-3.079967 2,-9.154988 l 0,-7.345012 9.09563,0 c 7.673679,0 9.562604,-0.332514 12.082657,-2.126949 l 2.987025,-2.12695 2.876853,2.12695 c 2.435001,1.800274 4.265371,2.126949 11.917345,2.126949 l 9.040493,0 0,7.491526 c 0,6.408519 0.289129,7.67209 2,8.740547 1.874503,1.170646 2,2.332027 2,18.508474 l 0,17.259453 -28,0 -28.000003,0 0,-16.845012 z m 38.605826,-5.404988 9.442535,-5.25 -0.274179,-10.5 -0.274179,-10.5 -19.5,0 -19.500003,0 -0.2585,10.5 -0.25849,10.5 9.258495,5.184043 c 5.092174,2.851223 9.857738,5.213723 10.590142,5.25 0.732404,0.03628 5.580785,-2.296543 10.774179,-5.184043 z m -26.605826,-15.75 0,-6 6.000003,0 6,0 0,6 0,6 -6,0 -6.000003,0 0,-6 z m 14.000003,3 c 0,-0.55 1.8,-1 4,-1 2.2,0 4,0.45 4,1 0,0.55 -1.8,1 -4,1 -2.2,0 -4,-0.45 -4,-1 z m 0,-4 c 0,-0.6 4,-1 10,-1 6,0 10,0.4 10,1 0,0.6 -4,1 -10,1 -6,0 -10,-0.4 -10,-1 z m 0,-4 c 0,-0.6 4,-1 10,-1 6,0 10,0.4 10,1 0,0.6 -4,1 -10,1 -6,0 -10,-0.4 -10,-1 z"
     id="path7708"
     inkscape:connector-curvature="0" />
</svg>
