<?xml version="1.0" encoding="UTF-8" standalone="no"?>
<!-- Created with Inkscape (http://www.inkscape.org/) -->

<svg
   xmlns:dc="http://purl.org/dc/elements/1.1/"
   xmlns:cc="http://creativecommons.org/ns#"
   xmlns:rdf="http://www.w3.org/1999/02/22-rdf-syntax-ns#"
   xmlns:svg="http://www.w3.org/2000/svg"
   xmlns="http://www.w3.org/2000/svg"
   xmlns:sodipodi="http://sodipodi.sourceforge.net/DTD/sodipodi-0.dtd"
   xmlns:inkscape="http://www.inkscape.org/namespaces/inkscape"
   id="svg8292"
   version="1.1"
   inkscape:version="0.91 r13725"
   width="96"
   height="96"
   viewBox="0 0 96 96"
   sodipodi:docname="pintrest.svg">
  <metadata
     id="metadata8298">
    <rdf:RDF>
      <cc:Work
         rdf:about="">
        <dc:format>image/svg+xml</dc:format>
        <dc:type
           rdf:resource="http://purl.org/dc/dcmitype/StillImage" />
        <dc:title></dc:title>
      </cc:Work>
    </rdf:RDF>
  </metadata>
  <defs
     id="defs8296" />
  <sodipodi:namedview
     pagecolor="#ffffff"
     bordercolor="#666666"
     borderopacity="1"
     objecttolerance="10"
     gridtolerance="10"
     guidetolerance="10"
     inkscape:pageopacity="0"
     inkscape:pageshadow="2"
     inkscape:window-width="1093"
     inkscape:window-height="628"
     id="namedview8294"
     showgrid="false"
     inkscape:zoom="2.4583333"
     inkscape:cx="48"
     inkscape:cy="48"
     inkscape:window-x="40"
     inkscape:window-y="85"
     inkscape:window-maximized="0"
     inkscape:current-layer="svg8292" />
  <path
     style="fill:#cb252c"
     d="M 35.812901,94.530239 C 27.29447,92.184083 21.585723,88.721219 14.443319,81.567681 7.0806981,74.193582 3.9786481,68.854848 1.4778681,59.25371 -7.3599419,25.323097 25.353074,-7.3521288 59.306702,1.491668 71.278564,4.6099419 82.398377,12.647442 88.880954,22.868202 100.52989,41.234502 97.558496,66.121504 81.84,81.84 69.833512,93.846488 51.591566,98.876014 35.812901,94.530239 Z m 21.49541,-4.007574 C 74.509979,86.877816 88.022379,72.653338 90.98862,55.067467 95.797646,26.556334 71.335321,1.4394753 42.257816,5.0327822 18.595393,7.9569107 1.2562981,31.065378 5.0247181,54.654745 6.5410881,64.146847 10.358454,71.504049 17.42818,78.55993 24.065178,85.18393 30.512913,88.793897 39,90.63759 c 7.381263,1.60347 10.284444,1.585246 18.308311,-0.114925 z M 35.011869,70.25 c 0.0065,-3.1625 0.717871,-8.225 1.580764,-11.25 0.862892,-3.025 1.870051,-9.503761 2.238131,-14.397246 0.606054,-8.057272 0.91707,-9.081793 3.294358,-10.852016 2.098334,-1.562503 3.037936,-1.73384 4.682276,-0.853816 2.970142,1.589572 3.409377,4.070172 1.711674,9.666743 -2.2322,7.358566 -1.986715,10.26614 0.980928,11.618289 5.391277,2.45643 10.877067,-3.348001 12.052027,-12.75207 1.199157,-9.597724 -3.796768,-15.433405 -13.206319,-15.426146 -5.764453,0.0044 -10.471445,2.547175 -13.397054,7.237122 -2.048129,3.283289 -2.1577,7.259697 -0.424096,15.390718 0.968469,4.542353 -1.105605,5.248913 -4.739833,1.614685 -5.269914,-5.269914 -4.846874,-15.453655 0.927002,-22.315517 7.662163,-9.105963 24.094687,-10.429672 32.950358,-2.65429 6.336609,5.563617 7.985488,13.531907 4.759388,22.999987 C 65.251923,57.578562 55.073326,63.178526 47.868308,59.58419 46.121737,58.712886 44.590283,58 44.465077,58 44.339871,58 43.704343,60.1375 43.052792,62.75 41.74478,67.99469 37.458196,76 35.957846,76 35.431031,76 35.005341,73.4125 35.011869,70.25 Z"
     id="path8302"
     inkscape:connector-curvature="0" />
</svg>
